<?xml version="1.0" encoding="utf-8"?>
<!-- Generator: Adobe Illustrator 19.0.0, SVG Export Plug-In . SVG Version: 6.00 Build 0)  -->
<svg version="1.1" id="Capa_1" xmlns="http://www.w3.org/2000/svg" xmlns:xlink="http://www.w3.org/1999/xlink" x="0px" y="0px"
	 viewBox="0 0 260 251.8" style="enable-background:new 0 0 260 251.8;" xml:space="preserve">
<style type="text/css">
	.st0{fill:#395499;}
	.st1{fill:#FFFFFF;}
</style>
<g id="XMLID_107_">
</g>
<g id="XMLID_104_">
	<path id="XMLID_106_" class="st0" d="M242.4,127c0-62.1-50.3-112.4-112.4-112.4C68,14.6,17.7,64.9,17.7,127
		C17.7,189,68,239.3,130,239.3c0.3,0,0.6,0,1,0v-78.4h-27.1v-31.3H131v-23.1c0-26.8,16.4-41.4,40.3-41.4c11.5,0,21.3,0.9,24.2,1.2
		v28l-16.6,0c-13,0-15.5,6.2-15.5,15.3v20h31l-4,31.3h-27v73.4C209.1,220.1,242.4,177.4,242.4,127z"/>
	<path id="XMLID_105_" class="st1" d="M190.3,160.9l4-31.3h-31v-20c0-9.1,2.5-15.3,15.5-15.3l16.6,0v-28c-2.9-0.4-12.7-1.2-24.2-1.2
		c-23.9,0-40.3,14.6-40.3,41.4v23.1h-27.1v31.3H131v78.4c11.3-0.1,22.1-1.8,32.4-5v-73.4H190.3z"/>
</g>
</svg>
