<?xml version="1.0" encoding="utf-8"?>
<!-- Generator: Adobe Illustrator 19.0.0, SVG Export Plug-In . SVG Version: 6.00 Build 0)  -->
<svg version="1.1" id="Capa_1" xmlns="http://www.w3.org/2000/svg" xmlns:xlink="http://www.w3.org/1999/xlink" x="0px" y="0px"
	 viewBox="0 0 260 251.8" style="enable-background:new 0 0 260 251.8;" xml:space="preserve">
<style type="text/css">
	.st0{fill:url(#XMLID_67_);}
	.st1{fill:#FFFFFF;}
</style>
<g id="XMLID_107_">
</g>
<g id="XMLID_54_">
	
		<radialGradient id="XMLID_67_" cx="129.2713" cy="136.702" r="317.6572" fx="-4.059" fy="138.7334" gradientTransform="matrix(0.6534 -0.757 0.6147 0.5306 -39.2252 162.0287)" gradientUnits="userSpaceOnUse">
		<stop  offset="0" style="stop-color:#F6E93D"/>
		<stop  offset="4.726241e-002" style="stop-color:#F5DE51"/>
		<stop  offset="0.1441" style="stop-color:#F1C073"/>
		<stop  offset="0.2806" style="stop-color:#EC8385"/>
		<stop  offset="0.3998" style="stop-color:#E82F7C"/>
		<stop  offset="0.5571" style="stop-color:#BB4288"/>
		<stop  offset="0.7143" style="stop-color:#8A4C92"/>
		<stop  offset="0.8451" style="stop-color:#5E4E99"/>
		<stop  offset="0.9442" style="stop-color:#3D4F9D"/>
		<stop  offset="1" style="stop-color:#2E4F9E"/>
	</radialGradient>
	<circle id="XMLID_66_" class="st0" cx="131" cy="127.9" r="112.4"/>
	<g id="XMLID_55_">
		<g id="XMLID_62_">
			<path id="XMLID_63_" class="st1" d="M161.5,203.7h-60.9c-27,0-49-22-49-49v-53.7c0-27,22-49,49-49h60.9c27,0,49,22,49,49v53.7
				C210.5,181.7,188.5,203.7,161.5,203.7z M100.6,62.9c-21,0-38.1,17.1-38.1,38.1v53.7c0,21,17.1,38.1,38.1,38.1h60.9
				c21,0,38.1-17.1,38.1-38.1v-53.7c0-21-17.1-38.1-38.1-38.1H100.6z"/>
		</g>
		<g id="XMLID_58_">
			<path id="XMLID_59_" class="st1" d="M131,171.5c-24.1,0-43.6-19.6-43.6-43.6c0-24.1,19.6-43.6,43.6-43.6
				c24.1,0,43.6,19.6,43.6,43.6C174.7,151.9,155.1,171.5,131,171.5z M131,95.1c-18.1,0-32.7,14.7-32.7,32.7
				c0,18,14.7,32.7,32.7,32.7c18.1,0,32.7-14.7,32.7-32.7C163.8,109.8,149.1,95.1,131,95.1z"/>
		</g>
		<g id="XMLID_56_">
			<path id="XMLID_57_" class="st1" d="M183,85.6c0,5-4.1,9.1-9.1,9.1c-5,0-9.1-4.1-9.1-9.1c0-5,4.1-9.1,9.1-9.1
				C179,76.5,183,80.6,183,85.6z"/>
		</g>
	</g>
</g>
</svg>
